<svg width="420" height="420" viewBox="0 0 420 420" fill="none" xmlns="http://www.w3.org/2000/svg">
<path d="M210 420C93.9216 420 0 325.939 0 210C0 93.9217 94.061 0 210 0C326.078 0 420 94.061 420 210C420.139 326.078 326.078 420 210 420Z" fill="#B5E2C9"/>
<mask id="mask0_220_422" style="mask-type:alpha" maskUnits="userSpaceOnUse" x="0" y="0" width="420" height="420">
<path d="M210 420C93.9217 420 0 325.939 0 210C0 93.9217 94.061 0 210 0C326.078 0 420 94.061 420 210C420.139 326.078 326.078 420 210 420Z" fill="#F7C0B5"/>
</mask>
<g mask="url(#mask0_220_422)">
<path d="M327.32 386.825C326.34 387.525 325.22 388.225 324.24 388.925C323.12 389.625 322.14 390.325 321.02 390.885C320.04 391.445 319.2 392.005 318.22 392.565C318.08 392.705 317.94 392.705 317.8 392.845C314.58 394.805 311.22 396.625 307.86 398.305C306.88 398.865 305.76 399.425 304.78 399.845C304.78 399.845 304.64 399.985 304.5 399.985C303.38 400.545 302.26 401.105 301.14 401.665C298.9 402.785 296.52 403.765 294.28 404.745C293.16 405.305 291.9 405.725 290.78 406.145C289.66 406.565 288.4 407.125 287.28 407.545C286.16 407.965 284.9 408.525 283.78 408.945C283.78 408.945 283.78 408.945 283.64 408.945C282.52 409.365 281.26 409.785 280.14 410.205C277.62 411.045 274.96 411.885 272.44 412.725C271.6 413.005 270.62 413.285 269.78 413.565C267.12 414.405 264.46 415.105 261.8 415.665C260.82 415.945 259.84 416.085 258.72 416.365C256.2 416.925 253.54 417.485 251.02 418.045C250.46 418.185 250.04 418.185 249.48 418.325C248.64 418.465 247.66 418.605 246.82 418.745C245.56 418.885 244.44 419.165 243.18 419.305C242.62 419.445 242.06 419.445 241.5 419.585C240.8 419.725 239.96 419.865 239.12 419.865C236.88 420.145 234.5 420.425 232.26 420.705C231.56 420.845 230.72 420.845 230.02 420.985H229.88C228.9 421.125 227.92 421.125 226.94 421.265C225.96 421.405 224.98 421.405 224 421.405C223.44 421.405 222.74 421.545 222.18 421.545C221.06 421.545 220.08 421.685 219.1 421.685C217.7 421.685 216.44 421.825 215.04 421.825C213.64 421.825 212.38 421.825 210.98 421.825C210 421.825 209.02 421.825 208.04 421.825C149.1 420.985 95.8999 395.925 58.0999 356.165C58.0999 356.165 58.0999 356.025 57.9599 356.025C62.2999 347.485 78.3999 332.085 95.1999 319.345C116.48 303.245 146.58 293.305 146.58 293.305C146.58 293.305 166.32 290.085 239.54 305.345C295.4 317.105 319.2 364.845 327.32 386.825Z" fill="#FEE4BF"/>
<path d="M255.08 344.125C252.14 358.545 233.1 367.085 201.04 354.205C161.7 338.245 146.58 293.305 146.58 293.305C144.48 261.105 139.58 233.525 139.58 233.525C185.08 229.605 238.84 282.805 238.84 282.805L245 309.125C245.56 311.365 246.68 313.325 248.36 314.725C251.3 319.765 257.04 334.885 255.08 344.125Z" fill="#FEE4BF"/>
<path d="M248.36 314.865C221.62 313.465 201.88 309.545 180.74 271.605C198.66 287.425 219.8 293.445 242.06 296.245L245 309.125C245.56 311.505 246.68 313.465 248.36 314.865Z" fill="#EFBD9C"/>
<path d="M303.66 146.165C306.18 157.925 307.44 167.445 300.58 198.805C293.72 230.165 306.88 261.525 273.84 290.225C251.58 309.545 212.66 313.185 181.58 292.045C171.08 284.905 161.42 274.965 153.58 261.945C147.42 251.725 140.28 242.065 132.3 233.245C121.24 221.205 107.94 196.985 114.52 154.145C125.16 84.4254 194.18 76.4454 234.92 84.1454C275.66 91.8454 296.8 115.085 303.66 146.165Z" fill="#FEE4BF"/>
<path d="M169.68 200.905C169.68 200.905 165.34 179.905 144.9 182.425C127.26 184.665 121.1 226.945 161.14 238.705" fill="#FEE4BF"/>
<path d="M159.88 219.525C159.88 219.525 154.84 216.305 155.4 210.705C156.24 204.125 155.4 200.065 152.32 198.805C144.62 195.585 143.08 204.545 143.36 205.665" stroke="#423232" stroke-width="4.82119" stroke-miterlimit="10" stroke-linecap="round" stroke-linejoin="round"/>
<path d="M266.7 233.105C266.7 233.105 272.02 233.385 277.06 227.365C279.86 224.005 282.24 219.805 280.7 218.545C279.16 217.145 253.82 221.065 252.14 224.425C250.46 227.785 260.26 233.105 266.7 233.105Z" fill="#EFBD9C"/>
<path d="M270.9 186.065C270.9 186.065 271.18 199.365 279.72 214.205C283.5 220.785 277.76 231.565 265.3 233.385" stroke="#423232" stroke-width="4.82119" stroke-miterlimit="10" stroke-linecap="round" stroke-linejoin="round"/>
<path d="M292.88 263.765C292.88 263.905 292.88 263.905 292.88 263.765C292.74 263.905 292.74 263.905 292.88 263.765C289.38 272.865 283.64 281.545 273.84 290.085C251.58 309.405 212.66 313.045 181.58 291.905C178.08 289.525 174.72 286.865 171.5 283.925C169.26 281.125 167.3 278.185 165.62 275.105C155.54 256.205 159.88 238.565 159.88 238.565C159.88 238.565 165.62 238.705 172.48 252.145C178.22 263.345 200.34 262.925 209.44 241.925C219.52 218.545 244.72 228.765 250.46 231.005C256.2 233.245 265.16 233.245 265.16 233.245C287.84 232.965 280.98 248.225 283.36 256.625C286.86 268.105 292.88 263.765 292.88 263.765Z" fill="#423232"/>
<path d="M125.962 267.96C125.962 267.96 138.982 264.88 144.442 264.46L146.122 279.72C146.262 279.58 126.102 271.88 125.962 267.96Z" fill="#544646"/>
<path d="M374.322 473.34H20.4017C20.4017 473.34 22.5017 408.38 43.7817 362.04C64.5017 317.24 120.922 297.78 146.962 291.06C146.962 291.76 147.102 292.32 147.102 293.02C147.102 293.02 162.222 337.96 201.562 353.92C233.622 366.94 252.662 358.26 255.602 343.84C257.422 334.6 251.682 319.48 248.742 314.58C247.062 313.18 245.942 311.08 245.382 308.98L244.262 304.36C247.762 303.66 251.122 302.68 254.342 301.42C272.402 306.18 299.562 317.52 331.622 344.4C367.882 374.64 374.322 473.34 374.322 473.34Z" fill="#544646"/>
<path d="M89.7016 473.34L83.4016 421.4" stroke="white" stroke-width="4.82119" stroke-miterlimit="10" stroke-linecap="round" stroke-linejoin="round"/>
<path d="M334.141 403.76C334.141 403.76 329.941 413.98 331.201 424.2C332.461 434.42 336.101 449.4 330.921 473.34" stroke="white" stroke-width="4.82119" stroke-miterlimit="10" stroke-linecap="round" stroke-linejoin="round"/>
<path d="M190.782 379.96C113.362 357.56 93.9016 312.06 93.9016 312.06C93.9016 312.06 106.082 304.5 111.822 296.66C115.322 291.9 146.822 286.44 146.822 286.44C147.382 292.46 146.822 286.44 147.242 293.02C147.242 293.02 162.362 337.96 201.702 353.92C233.762 366.94 252.802 358.26 255.742 343.84C257.562 334.6 251.822 319.48 248.882 314.58C247.202 313.18 246.082 311.08 245.522 308.98L244.402 304.36C252.382 302.68 259.942 299.6 266.522 295.54C266.802 295.96 266.942 296.38 267.082 296.8C270.022 303.94 278.982 310.38 278.982 310.38C297.742 354.62 269.602 402.78 190.782 379.96Z" fill="#544646"/>
<path d="M301.242 322.42C301.242 322.42 307.682 319.34 314.122 320.04C320.562 320.74 351.222 345.52 354.162 350.7C357.242 355.88 357.102 372.4 353.462 374.5C349.962 376.46 347.722 371.98 347.722 371.98C347.722 371.98 350.382 356.86 347.442 354.06C344.502 351.26 316.082 327.46 315.102 327.32C314.122 327.18 308.802 331.66 308.802 331.66L301.242 322.42Z" fill="#544646"/>
<path d="M89.7018 318.92C89.7018 318.92 77.1018 313.6 71.6418 314.44C66.1818 315.28 37.9018 339.64 35.2418 350.42C32.5818 361.2 41.5418 380.66 41.5418 380.66L47.8418 370.72C47.8418 370.72 43.3618 355.88 44.7618 350C46.1618 344.12 68.5618 323.96 70.8018 323.96C73.0418 323.96 86.4818 329.98 86.4818 329.98L89.7018 318.92Z" fill="#544646"/>
<path d="M147.942 326.9C161.382 352.66 188.262 386.96 233.202 403.06C273.662 417.62 271.142 368.76 265.262 339.5C224.942 348.32 184.482 349.02 147.942 326.9Z" fill="#443F3F"/>
<path d="M265.262 339.64C263.722 331.94 261.902 325.64 260.642 322.14C257.842 314.58 253.642 307.86 249.862 302.82C248.042 303.38 246.222 303.8 244.402 304.22L245.522 308.84C246.082 311.08 247.202 313.04 248.882 314.44C249.162 315 249.582 315.7 250.002 316.54C218.222 328.86 180.702 312.62 180.702 312.62C169.362 312.06 170.202 323.26 175.522 336.56C155.362 317.38 147.242 293.02 147.242 293.02C146.962 288.82 146.682 284.76 146.262 280.7C146.262 280.7 135.902 286.44 137.722 299.32C138.562 304.78 141.782 315 148.082 326.9C184.482 349.02 224.942 348.32 265.262 339.64Z" fill="#E26076"/>
<path d="M125.962 267.96C125.962 267.96 158.582 283.08 184.902 290.08C187.422 290.78 189.382 293.02 189.662 295.68C190.642 305.2 193.302 327.46 195.542 336C198.482 347.06 255.462 403.34 256.022 410.48C256.582 417.62 198.482 415.94 163.902 374.5C129.182 333.06 131.842 325.5 131.842 325.5C131.842 325.5 125.962 285.74 125.962 267.96Z" fill="#544646"/>
<path d="M281.222 282.94L290.182 286.72C292.982 287.84 294.382 291.06 293.402 294C289.342 306.32 279.262 336.98 278.842 347.62C278.282 361.06 250.562 447.44 250.562 447.44C250.562 447.44 233.622 425.18 246.082 403.2C255.882 385.84 256.442 348.74 255.462 343.84C254.202 337.4 248.882 322.28 245.942 312.76C244.402 307.58 244.122 304.36 244.122 304.36C244.122 304.36 263.442 301.14 281.222 282.94Z" fill="#544646"/>
<path d="M177.062 305.9C179.304 305.9 181.122 303.831 181.122 301.28C181.122 298.728 179.304 296.66 177.062 296.66C174.819 296.66 173.002 298.728 173.002 301.28C173.002 303.831 174.819 305.9 177.062 305.9Z" fill="white"/>
<path d="M241.742 391.3C231.522 380.38 202.962 354.48 194.282 348.74C189.242 345.38 183.782 342.86 178.042 341.04C141.642 329.28 129.742 310.1 129.742 310.1L128.202 296.66" stroke="#443F3F" stroke-width="4.82119" stroke-miterlimit="10" stroke-linecap="round" stroke-linejoin="round"/>
<path d="M248.322 399C248.322 399 244.962 415.66 246.362 423.78C247.762 431.9 248.882 456.12 248.882 456.12" stroke="#443F3F" stroke-width="4.82119" stroke-miterlimit="10" stroke-linecap="round" stroke-linejoin="round"/>
<path d="M286.961 314.58C286.961 314.58 280.101 338.66 276.881 348.18C273.521 357.7 258.261 376.74 254.061 385.84" stroke="#443F3F" stroke-width="4.82119" stroke-miterlimit="10" stroke-linecap="round" stroke-linejoin="round"/>
<path d="M268.622 397.04C271.173 397.04 273.242 394.971 273.242 392.42C273.242 389.868 271.173 387.8 268.622 387.8C266.07 387.8 264.002 389.868 264.002 392.42C264.002 394.971 266.07 397.04 268.622 397.04Z" fill="white"/>
<path d="M231.059 189.57C231.059 189.57 221.259 189.71 211.319 182.29" stroke="#423232" stroke-width="4.82119" stroke-miterlimit="10" stroke-linecap="round" stroke-linejoin="round"/>
<path d="M272.639 191.81C272.639 191.81 282.719 189.99 285.659 186.07" stroke="#423232" stroke-width="4.82119" stroke-miterlimit="10" stroke-linecap="round" stroke-linejoin="round"/>
<path d="M237.779 178.79C240.439 180.33 243.799 178.23 243.939 175.01C243.939 173.33 243.659 171.51 242.539 169.97C239.179 165.49 222.799 158.63 211.459 161.57C201.659 164.09 225.599 171.79 237.779 178.79Z" fill="#423232"/>
<path d="M280.76 180.47C278.8 182.01 275.58 180.19 275.16 177.25C274.88 175.71 275.02 174.03 275.72 172.63C277.96 168.43 288.32 162.69 296.72 165.49C304 168.15 290.14 173.61 280.76 180.47Z" fill="#423232"/>
<path d="M215.24 184.81C214.12 185.79 213.42 187.33 213.28 188.87L213.14 192.79C213 196.15 215.52 198.95 218.74 199.09C222.1 199.23 224.9 196.71 225.04 193.49L225.18 189.57C225.18 189.43 225.18 189.29 225.18 189.15C221.54 188.87 218.32 187.33 215.24 184.81Z" fill="#423232"/>
<path d="M272.64 191.53C272.64 191.67 272.64 191.67 272.64 191.81L272.5 195.45C272.36 198.53 274.74 201.19 277.82 201.33C280.9 201.47 283.56 199.09 283.7 196.01L283.84 192.37C283.98 190.97 283.42 189.71 282.72 188.73C279.64 190.55 276.28 190.97 272.64 191.53Z" fill="#423232"/>
<path d="M263.842 250.66C264.002 253.232 262.074 257.731 258.538 260.945C240.379 249.857 232.183 255.642 232.183 255.642C225.754 245.839 227.201 232.5 242.789 242.625C253.717 249.535 260.306 250.66 263.842 250.66Z" fill="#423232"/>
<path d="M258.538 260.945C254.682 264.32 248.896 266.409 241.022 263.195C237.325 261.749 234.433 258.856 232.183 255.642C232.183 255.642 240.379 249.857 258.538 260.945Z" fill="#FE9DAB"/>
<path d="M266.895 250.018C266.895 250.018 260.146 253.714 242.789 242.625C222.058 229.286 226.237 257.249 240.861 263.195C256.128 269.463 264.003 255.803 263.842 250.66" stroke="#423232" stroke-width="4.82119" stroke-miterlimit="10" stroke-linecap="round" stroke-linejoin="round"/>
<path d="M232.183 255.642C232.183 255.642 240.379 249.857 258.538 260.945" stroke="#423232" stroke-width="4.82119" stroke-miterlimit="10" stroke-linecap="round" stroke-linejoin="round"/>
<path d="M303.592 186.92C307.372 165.64 306.252 157.24 304.012 147.3C303.312 144.22 302.472 141.28 301.492 138.34C292.672 134.42 285.392 145.34 273.352 143.66C241.292 139.32 216.792 125.6 189.772 131.48C172.832 135.12 170.032 150.38 174.932 178.52C176.332 186.22 176.332 193.64 169.752 201.34C168.632 197.42 163.172 181.46 145.252 183.7C128.312 185.8 121.872 225 156.872 238.44C156.592 246.14 149.452 260.42 143.712 263.64C143.712 263.64 142.732 253.42 131.532 239.98C120.332 226.54 97.9317 191.68 113.052 140.72C128.172 89.7595 196.632 63.1595 260.332 89.0595C271.252 93.5395 280.212 99.8395 287.352 106.42C304.152 121.82 313.112 144.22 310.452 166.76C309.892 174.32 307.792 181.6 303.592 186.92Z" fill="#423232"/>
<path d="M160.372 98.7193C160.372 98.7193 164.432 53.7793 140.072 48.3193C115.712 42.8593 124.112 69.4593 131.672 86.1193C131.672 86.1193 102.552 60.0793 89.8118 77.7193C77.6318 94.6593 108.152 113.139 108.152 113.139C108.152 113.139 62.9318 116.779 72.4518 142.539C82.1118 168.299 131.672 134.699 131.672 134.699C131.672 134.699 160.232 108.379 160.372 98.7193Z" fill="#423232"/>
<path d="M154.159 205.518C154.159 205.518 142.959 203.838 143.799 219.518C144.219 227.498 144.219 231.838 144.079 234.078C143.939 235.618 144.919 237.018 146.319 237.578C147.999 238.278 149.819 237.578 150.659 235.898C151.919 233.658 153.319 230.578 153.319 228.058C153.319 223.858 157.799 220.078 157.799 220.078C157.799 220.078 153.739 216.578 154.159 205.518Z" fill="white"/>
<path d="M188.039 475.438C186.919 474.178 142.959 398.998 149.539 370.718C154.019 351.258 148.139 328.858 142.959 309.118C140.859 300.998 138.899 293.438 137.779 286.718C135.819 275.098 137.219 264.038 141.979 253.818C147.159 242.338 146.319 232.398 146.319 232.258L149.119 231.978C149.119 232.398 149.959 242.898 144.499 254.938C140.019 264.598 138.759 275.238 140.579 286.298C141.699 292.878 143.659 300.438 145.759 308.558C151.079 328.578 156.959 351.398 152.339 371.558C146.179 398.438 189.999 473.618 190.279 473.898L188.039 475.438Z" fill="white"/>
<path d="M144.219 227.638C144.359 230.718 144.219 232.818 144.219 234.078C144.079 235.618 145.059 237.018 146.459 237.578C148.139 238.278 149.959 237.578 150.799 235.898C152.059 233.658 153.459 230.578 153.459 228.058C153.459 227.918 153.459 227.638 153.459 227.498C150.519 228.618 147.159 229.458 144.219 227.638Z" fill="#E5E5E5"/>
<path d="M275.959 320.738C274.979 327.178 274.839 337.398 274.559 349.298C274.139 372.258 260.559 461.718 253.979 475.858L251.459 474.738C257.759 461.018 271.339 371.978 271.759 349.298C272.039 337.398 272.179 327.038 273.159 320.318C275.259 306.178 273.719 295.538 272.879 291.058C273.299 290.638 273.719 290.358 274.139 289.938C274.559 289.658 274.839 289.238 275.259 288.958C276.099 292.598 278.479 304.218 275.959 320.738Z" fill="white"/>
</g>
</svg>
