<svg width="420" height="420" viewBox="0 0 420 420" fill="none" xmlns="http://www.w3.org/2000/svg">
<path d="M210 420C93.9217 420 0 325.939 0 210C0 93.9217 94.061 0 210 0C326.078 0 420 94.061 420 210C420.139 326.078 326.078 420 210 420Z" fill="#B5E2DC"/>
<mask id="mask0_220_523" style="mask-type:alpha" maskUnits="userSpaceOnUse" x="0" y="0" width="420" height="420">
<path d="M210 420C93.9217 420 0 325.939 0 210C0 93.9217 94.061 0 210 0C326.078 0 420 94.061 420 210C420.139 326.078 326.078 420 210 420Z" fill="#F7C0B5"/>
</mask>
<g mask="url(#mask0_220_523)">
<path d="M327.6 386.83C326.62 387.53 325.5 388.23 324.52 388.93C323.4 389.63 322.42 390.33 321.3 390.89C320.32 391.45 319.48 392.01 318.5 392.57C318.36 392.71 318.22 392.71 318.08 392.85C314.86 394.81 311.5 396.63 308.14 398.31C307.16 398.87 306.04 399.43 305.06 399.85C305.06 399.85 304.92 399.99 304.78 399.99C303.66 400.55 302.54 401.11 301.42 401.67C299.18 402.79 296.8 403.77 294.56 404.75C293.44 405.31 292.18 405.73 291.06 406.15C289.94 406.57 288.68 407.13 287.56 407.55C286.44 407.97 285.18 408.53 284.06 408.95C284.06 408.95 284.06 408.95 283.92 408.95C282.8 409.37 281.54 409.79 280.42 410.21C277.9 411.05 275.24 411.89 272.72 412.73C271.88 413.01 270.9 413.29 270.06 413.57C267.4 414.41 264.74 415.11 262.08 415.67C261.1 415.95 260.12 416.09 259 416.37C256.48 416.93 253.82 417.49 251.3 418.05C250.74 418.19 250.32 418.19 249.76 418.33C248.92 418.47 247.94 418.61 247.1 418.75C245.84 418.89 244.72 419.17 243.46 419.31C242.9 419.45 242.34 419.45 241.78 419.59C241.08 419.73 240.24 419.87 239.4 419.87C237.16 420.15 234.78 420.43 232.54 420.71C231.84 420.85 231 420.85 230.3 420.99H230.16C229.18 421.13 228.2 421.13 227.22 421.27C226.24 421.41 225.26 421.41 224.28 421.41C223.72 421.41 223.02 421.55 222.46 421.55C221.34 421.55 220.36 421.69 219.38 421.69C217.98 421.69 216.72 421.83 215.32 421.83C213.92 421.83 212.66 421.83 211.26 421.83C210.28 421.83 209.3 421.83 208.32 421.83C149.38 420.99 96.1803 395.93 58.3804 356.17C58.3804 356.17 58.3804 356.03 58.2404 356.03C62.5804 347.49 78.6803 332.09 95.4803 319.35C116.76 303.25 146.86 293.31 146.86 293.31C146.86 293.31 166.6 290.09 239.82 305.35C295.68 317.11 319.48 364.85 327.6 386.83Z" fill="#F7D3B5"/>
<path d="M255.36 344.13C252.42 358.55 233.38 367.09 201.32 354.21C161.98 338.25 146.86 293.31 146.86 293.31C144.76 261.11 139.86 233.53 139.86 233.53C185.36 229.61 239.12 282.81 239.12 282.81L245.28 309.13C245.84 311.37 246.96 313.33 248.64 314.73C251.58 319.77 257.32 334.89 255.36 344.13Z" fill="#F7D3B5"/>
<path d="M248.64 314.87C221.9 313.47 202.16 309.55 181.02 271.61C198.94 287.43 220.08 293.45 242.34 296.25L245.28 309.13C245.84 311.51 246.96 313.47 248.64 314.87Z" fill="#EFBDA5"/>
<path d="M303.94 146.17C306.46 157.93 307.72 167.45 300.86 198.81C294 230.17 307.16 261.53 274.12 290.23C251.86 309.55 212.94 313.19 181.86 292.05C171.36 284.91 161.7 274.97 153.86 261.95C147.7 251.73 140.56 242.07 132.58 233.25C121.52 221.21 108.22 196.99 114.8 154.15C125.44 84.43 194.46 76.45 235.2 84.15C275.94 91.85 297.08 115.09 303.94 146.17Z" fill="#F7D3B5"/>
<path d="M169.96 200.91C169.96 200.91 165.62 179.91 145.18 182.43C127.54 184.67 121.38 226.95 161.42 238.71" fill="#F7D3B5"/>
<path d="M160.16 219.53C160.16 219.53 155.12 216.31 155.68 210.71C156.52 204.13 155.68 200.07 152.6 198.81C144.9 195.59 143.36 204.55 143.64 205.67" stroke="#423232" stroke-width="6.49255" stroke-miterlimit="10" stroke-linecap="round" stroke-linejoin="round"/>
<path d="M266.98 233.11C266.98 233.11 272.3 233.39 277.34 227.37C280.14 224.01 282.52 219.81 280.98 218.55C279.44 217.15 254.1 221.07 252.42 224.43C250.74 227.79 260.54 233.11 266.98 233.11Z" fill="#EFBDA5"/>
<path d="M271.18 186.07C271.18 186.07 271.46 199.37 280 214.21C283.78 220.79 278.04 231.57 265.58 233.39" stroke="#423232" stroke-width="6.49255" stroke-miterlimit="10" stroke-linecap="round" stroke-linejoin="round"/>
<path opacity="0.42" d="M195.3 240.25C203.264 240.25 209.72 234.922 209.72 228.35C209.72 221.778 203.264 216.45 195.3 216.45C187.336 216.45 180.88 221.778 180.88 228.35C180.88 234.922 187.336 240.25 195.3 240.25Z" fill="#ED938A"/>
<path opacity="0.42" d="M298.62 216.73C298.2 224.57 298.34 232.27 297.78 239.97C291.62 238.57 287.14 233.95 287.14 228.49C287.14 222.61 292.04 217.85 298.62 216.73Z" fill="#ED938A"/>
<path d="M341.745 360.749C321.865 335.129 291.065 324.489 274.125 318.189C272.725 311.189 270.065 303.489 265.865 296.069C259.425 299.989 252.005 302.929 244.305 304.469L245.425 309.089C245.985 311.329 248.785 321.689 244.445 334.989C240.805 346.189 226.105 351.229 201.185 339.889C152.605 317.909 147.005 293.129 147.005 293.129C146.165 279.689 144.765 267.089 143.505 256.869C128.385 260.229 110.885 267.089 101.365 281.509C89.6054 299.149 85.2654 317.069 86.3854 331.349C65.9454 344.369 34.3055 364.109 23.9455 399.389C10.5055 445.309 12.7455 473.449 12.7455 473.449H374.505C374.085 473.589 368.765 395.609 341.745 360.749Z" fill="#6060D8"/>
<path d="M125.445 314.83C125.445 314.83 133.985 348.01 171.365 370.97" stroke="#423232" stroke-width="6.49255" stroke-miterlimit="10" stroke-linecap="round" stroke-linejoin="round"/>
<path d="M273.986 318.189C273.986 318.189 283.926 361.169 262.226 380.909" stroke="#423232" stroke-width="6.49255" stroke-miterlimit="10" stroke-linecap="round" stroke-linejoin="round"/>
<path d="M206.505 374.33C206.505 374.33 199.225 395.61 201.185 410.31" stroke="#423232" stroke-width="6.49255" stroke-miterlimit="10" stroke-linecap="round" stroke-linejoin="round"/>
<path d="M251.166 373.07C251.166 373.07 256.626 384.97 260.546 403.87" stroke="#423232" stroke-width="6.49255" stroke-miterlimit="10" stroke-linecap="round" stroke-linejoin="round"/>
<path d="M86.1056 331.49C86.1056 331.49 97.5856 378.25 165.906 391.969" stroke="#423232" stroke-width="6.49255" stroke-miterlimit="10" stroke-linecap="round" stroke-linejoin="round"/>
<path d="M202.445 413.53L196.285 412.97C194.045 412.69 192.365 410.59 192.785 408.35L194.885 397.85C195.445 394.91 198.245 392.81 201.185 393.23C204.125 393.51 206.505 396.03 206.505 399.11L206.645 409.89C206.645 411.99 204.685 413.81 202.445 413.53Z" fill="white"/>
<path d="M266.705 407.09L260.825 409.19C258.585 410.03 256.205 408.63 255.785 406.39L253.265 396.03C252.565 393.09 254.105 390.15 257.045 389.03C259.845 388.05 263.065 389.31 264.325 391.97L268.945 401.63C269.925 403.73 268.945 406.25 266.705 407.09Z" fill="white"/>
<path d="M328.445 403.87C328.445 403.87 336.285 447.83 333.205 473.59" stroke="#544D4D" stroke-width="6.49255" stroke-miterlimit="10" stroke-linecap="round" stroke-linejoin="round"/>
<path d="M220.966 200.126C217.606 199.986 215.086 197.186 215.366 193.826L215.506 189.906C215.646 186.546 218.446 184.026 221.806 184.306C225.166 184.446 227.686 187.246 227.406 190.606L227.266 194.526C227.126 197.746 224.326 200.266 220.966 200.126Z" fill="#423232"/>
<path d="M279.906 202.227C276.826 202.087 274.446 199.426 274.586 196.346L274.726 192.706C274.866 189.626 277.526 187.246 280.606 187.386C283.686 187.526 286.066 190.186 285.926 193.266L285.786 196.906C285.646 199.986 282.986 202.367 279.906 202.227Z" fill="#423232"/>
<path d="M234.546 192.006C234.546 192.006 230.906 186.826 224.606 185.846C219.426 185.006 213.686 187.526 212.846 190.466" stroke="#423232" stroke-width="6.49255" stroke-miterlimit="10" stroke-linecap="round" stroke-linejoin="round"/>
<path d="M275.846 193.267C275.846 193.267 275.846 188.787 282.286 188.787C287.606 188.787 289.846 193.687 289.846 193.687" stroke="#423232" stroke-width="6.49255" stroke-miterlimit="10" stroke-linecap="round" stroke-linejoin="round"/>
<path d="M240.286 169.466C243.226 170.446 246.166 167.786 245.606 164.566C245.326 162.886 244.626 161.206 243.226 159.946C239.026 156.166 221.666 152.806 211.166 157.706C201.926 162.186 226.846 164.986 240.286 169.466Z" fill="#423232"/>
<path d="M282.146 171.707C279.766 172.547 277.246 170.027 277.666 167.087C277.806 165.547 278.366 164.007 279.486 162.887C282.846 159.527 294.326 156.867 301.606 162.047C307.906 166.387 293.066 167.647 282.146 171.707Z" fill="#423232"/>
<path d="M278.304 254.143C278.52 257.605 275.923 263.665 271.162 267.993C246.706 253.061 235.669 260.852 235.669 260.852C227.012 247.65 228.96 229.687 249.953 243.322C264.669 252.628 273.542 254.143 278.304 254.143Z" fill="#423232"/>
<path d="M271.162 267.993C265.968 272.538 258.177 275.351 247.572 271.023C242.595 269.075 238.699 265.18 235.669 260.851C235.669 260.851 246.707 253.06 271.162 267.993Z" fill="#FE9DAB"/>
<path d="M282.416 253.277C282.416 253.277 273.326 258.255 249.953 243.322C222.035 225.359 227.662 263.016 247.356 271.023C267.916 279.464 278.52 261.068 278.304 254.143" stroke="#423232" stroke-width="6.49255" stroke-miterlimit="10" stroke-linecap="round" stroke-linejoin="round"/>
<path d="M235.669 260.851C235.669 260.851 246.707 253.06 271.162 267.993" stroke="#423232" stroke-width="6.49255" stroke-miterlimit="10" stroke-linecap="round" stroke-linejoin="round"/>
<path d="M314.743 112.375C304.803 148.355 275.963 142.335 248.943 132.535C212.963 119.375 181.323 130.015 181.183 162.495C180.903 210.095 169.003 195.675 167.743 193.855C164.663 187.975 158.083 180.695 145.623 182.235C129.243 184.335 122.803 220.455 153.323 235.295C158.643 262.315 144.083 259.795 144.083 259.795C139.183 239.915 98.0234 197.635 97.8834 169.775C97.8834 132.255 116.783 121.615 116.783 121.615C117.343 95.435 144.643 66.595 190.563 67.575C236.483 68.415 264.623 67.155 273.583 56.375C282.543 45.315 324.683 76.395 314.743 112.375Z" fill="#423232"/>
<path d="M315.863 155.635C314.463 164.735 310.543 171.735 305.083 176.915C307.183 161.655 306.063 154.375 304.243 145.835C300.323 128.335 291.923 113.215 277.923 102.015C284.923 101.455 292.063 102.995 298.503 107.055C298.503 106.915 321.603 116.295 315.863 155.635Z" fill="#423232"/>
<path d="M154.159 205.518C154.159 205.518 142.959 203.838 143.799 219.518C144.219 227.498 144.219 231.838 144.079 234.078C143.939 235.618 144.919 237.018 146.319 237.578C147.999 238.278 149.819 237.578 150.659 235.898C151.919 233.658 153.319 230.578 153.319 228.058C153.319 223.858 157.799 220.078 157.799 220.078C157.799 220.078 153.739 216.578 154.159 205.518Z" fill="white"/>
<path d="M188.039 475.438C186.919 474.178 142.959 398.998 149.539 370.718C154.019 351.258 148.139 328.858 142.959 309.118C140.859 300.998 138.899 293.438 137.779 286.718C135.819 275.098 137.219 264.038 141.979 253.818C147.159 242.338 146.319 232.398 146.319 232.258L149.119 231.978C149.119 232.398 149.959 242.898 144.499 254.938C140.019 264.598 138.759 275.238 140.579 286.298C141.699 292.878 143.659 300.438 145.759 308.558C151.079 328.578 156.959 351.398 152.339 371.558C146.179 398.438 189.999 473.618 190.279 473.898L188.039 475.438Z" fill="white"/>
<path d="M144.219 227.638C144.359 230.718 144.219 232.818 144.219 234.078C144.079 235.618 145.059 237.018 146.459 237.578C148.139 238.278 149.959 237.578 150.799 235.898C152.059 233.658 153.459 230.578 153.459 228.058C153.459 227.918 153.459 227.638 153.459 227.498C150.519 228.618 147.159 229.458 144.219 227.638Z" fill="#E5E5E5"/>
<path d="M275.959 320.738C274.979 327.178 274.839 337.398 274.559 349.298C274.139 372.258 260.559 461.718 253.979 475.858L251.459 474.738C257.759 461.018 271.339 371.978 271.759 349.298C272.039 337.398 272.179 327.038 273.159 320.318C275.259 306.178 273.719 295.538 272.879 291.058C273.299 290.638 273.719 290.358 274.139 289.938C274.559 289.658 274.839 289.238 275.259 288.958C276.099 292.598 278.479 304.218 275.959 320.738Z" fill="white"/>
</g>
</svg>
