<svg width="420" height="420" viewBox="0 0 420 420" fill="none" xmlns="http://www.w3.org/2000/svg">
<path d="M210 420C93.9217 420 0 325.939 0 210C0 93.9217 94.061 0 210 0C326.078 0 420 94.0611 420 210C420.139 326.078 326.078 420 210 420Z" fill="#F7C0B5"/>
<mask id="mask0_220_368" style="mask-type:alpha" maskUnits="userSpaceOnUse" x="0" y="0" width="420" height="420">
<path d="M210 420C93.9217 420 0 325.939 0 210C0 93.9217 94.061 0 210 0C326.078 0 420 94.061 420 210C420.139 326.078 326.078 420 210 420Z" fill="#F7C0B5"/>
</mask>
<g mask="url(#mask0_220_368)">
<path d="M328.159 386.83C327.179 387.53 326.059 388.23 325.079 388.93C323.959 389.63 322.979 390.33 321.859 390.89C320.879 391.45 320.039 392.01 319.059 392.57C318.919 392.71 318.779 392.71 318.639 392.85C315.419 394.81 312.059 396.63 308.699 398.31C307.719 398.87 306.599 399.43 305.619 399.85C305.619 399.85 305.479 399.99 305.339 399.99C304.219 400.55 303.099 401.11 301.979 401.67C299.739 402.79 297.359 403.77 295.119 404.75C293.999 405.31 292.739 405.73 291.619 406.15C290.499 406.57 289.239 407.13 288.119 407.55C286.999 407.97 285.739 408.53 284.619 408.95C284.619 408.95 284.619 408.95 284.479 408.95C283.359 409.37 282.099 409.79 280.979 410.21C278.459 411.05 275.799 411.89 273.279 412.73C272.439 413.01 271.459 413.29 270.619 413.57C267.959 414.41 265.299 415.11 262.639 415.67C261.659 415.95 260.679 416.09 259.559 416.37C257.039 416.93 254.379 417.49 251.859 418.05C251.299 418.19 250.879 418.19 250.319 418.33C249.479 418.47 248.499 418.61 247.659 418.75C246.399 418.89 245.279 419.17 244.019 419.31C243.459 419.45 242.899 419.45 242.339 419.59C241.639 419.73 240.799 419.87 239.959 419.87C237.719 420.15 235.339 420.43 233.099 420.71C232.399 420.85 231.559 420.85 230.859 420.99H230.719C229.739 421.13 228.759 421.13 227.779 421.27C226.799 421.41 225.819 421.41 224.839 421.41C224.279 421.41 223.579 421.55 223.019 421.55C221.899 421.55 220.919 421.69 219.939 421.69C218.539 421.69 217.279 421.83 215.879 421.83C214.479 421.83 213.219 421.83 211.819 421.83C210.839 421.83 209.859 421.83 208.879 421.83C149.939 420.99 96.7393 395.93 58.9393 356.17C58.9393 356.17 58.9393 356.03 58.7993 356.03C63.1393 347.49 79.2393 332.09 96.0393 319.35C117.319 303.25 147.419 293.31 147.419 293.31C147.419 293.31 167.159 290.09 240.379 305.35C296.239 317.11 320.039 364.85 328.159 386.83Z" fill="#FEE4BF"/>
<path d="M255.919 344.13C252.979 358.55 233.939 367.09 201.879 354.21C162.539 338.25 147.419 293.31 147.419 293.31C145.319 261.11 140.419 233.53 140.419 233.53C185.919 229.61 239.679 282.81 239.679 282.81L245.839 309.13C246.399 311.37 247.519 313.33 249.199 314.73C252.139 319.77 257.879 334.89 255.919 344.13Z" fill="#FEE4BF"/>
<path d="M249.199 314.87C222.459 313.47 202.719 309.55 181.579 271.61C199.499 287.43 220.639 293.45 242.899 296.25L245.839 309.13C246.399 311.51 247.519 313.47 249.199 314.87Z" fill="#EFBDA5"/>
<path d="M304.499 146.17C307.019 157.93 308.279 167.45 301.419 198.81C294.559 230.17 307.719 261.53 274.679 290.23C252.419 309.55 213.499 313.19 182.419 292.05C171.919 284.91 162.259 274.97 154.419 261.95C148.259 251.73 141.119 242.07 133.139 233.25C122.079 221.21 108.779 196.99 115.359 154.15C125.999 84.4304 195.019 76.4504 235.759 84.1504C276.499 91.8504 297.639 115.09 304.499 146.17Z" fill="#FEE4BF"/>
<path d="M170.519 200.91C170.519 200.91 166.179 179.91 145.739 182.43C128.099 184.67 121.939 226.95 161.979 238.71" fill="#FEE4BF"/>
<path d="M160.719 219.531C160.719 219.531 155.679 216.311 156.239 210.711C157.079 204.131 156.239 200.071 153.159 198.811C145.459 195.591 143.919 204.551 144.199 205.671" stroke="#423232" stroke-width="5.08" stroke-miterlimit="10" stroke-linecap="round" stroke-linejoin="round"/>
<path d="M267.539 233.11C267.539 233.11 272.859 233.39 277.899 227.37C280.699 224.01 283.079 219.81 281.539 218.55C279.999 217.15 254.659 221.07 252.979 224.43C251.299 227.79 261.099 233.11 267.539 233.11Z" fill="#EFBDA5"/>
<path d="M271.739 186.07C271.739 186.07 272.019 199.37 280.559 214.21C284.339 220.79 278.599 231.57 266.139 233.39" stroke="#423232" stroke-width="5.08" stroke-miterlimit="10" stroke-linecap="round" stroke-linejoin="round"/>
<path opacity="0.42" d="M195.859 240.25C203.823 240.25 210.279 234.923 210.279 228.35C210.279 221.778 203.823 216.45 195.859 216.45C187.895 216.45 181.439 221.778 181.439 228.35C181.439 234.923 187.895 240.25 195.859 240.25Z" fill="#F2A5B2"/>
<path opacity="0.42" d="M299.179 216.73C298.759 224.57 298.899 232.27 298.339 239.97C292.179 238.57 287.699 233.95 287.699 228.49C287.699 222.61 292.599 217.85 299.179 216.73Z" fill="#F2A5B2"/>
<path d="M252.168 302.4C252.168 302.4 231.168 308.56 202.048 299.04C172.928 289.52 144.508 264.46 144.508 264.46C144.508 264.46 135.268 264.6 131.768 271.6C128.408 278.6 128.548 293.02 123.228 296.94C121.968 297.78 118.468 298.76 113.288 300.16C104.888 302.54 92.4284 306.18 79.8284 313.32C70.4484 318.64 60.9284 325.78 52.9484 335.58C49.3084 340.06 46.0884 345.1 43.2884 350.84C21.1684 395.78 30.6884 458.78 30.6884 458.78H372.848C372.848 458.78 362.908 380.94 341.488 355.32C320.068 329.7 279.188 308.98 267.148 303.52V295.4C267.288 295.4 259.868 300.3 252.168 302.4Z" fill="#48D89E"/>
<mask id="mask1_220_368" style="mask-type:alpha" maskUnits="userSpaceOnUse" x="28" y="264" width="345" height="195">
<path d="M252.168 302.4C252.168 302.4 231.168 308.56 202.048 299.04C172.928 289.52 144.508 264.46 144.508 264.46C144.508 264.46 135.268 264.6 131.768 271.6C128.408 278.6 128.548 293.02 123.228 296.94C121.968 297.78 118.468 298.76 113.288 300.16C104.888 302.54 92.4284 306.18 79.8284 313.32C70.4484 318.64 60.9284 325.78 52.9484 335.58C49.3084 340.06 46.0884 345.1 43.2884 350.84C21.1684 395.78 30.6884 458.78 30.6884 458.78H372.848C372.848 458.78 362.908 380.94 341.488 355.32C320.068 329.7 279.188 308.98 267.148 303.52V295.4C267.288 295.4 259.868 300.3 252.168 302.4Z" fill="#48D89E"/>
</mask>
<g mask="url(#mask1_220_368)">
<path d="M85.8483 355.88C94.0442 355.88 100.688 349.236 100.688 341.04C100.688 332.844 94.0442 326.2 85.8483 326.2C77.6524 326.2 71.0083 332.844 71.0083 341.04C71.0083 349.236 77.6524 355.88 85.8483 355.88Z" fill="#FCED7E"/>
<path d="M170.268 349.02C178.464 349.02 185.108 342.376 185.108 334.18C185.108 325.984 178.464 319.34 170.268 319.34C162.072 319.34 155.428 325.984 155.428 334.18C155.428 342.376 162.072 349.02 170.268 349.02Z" fill="#FCED7E"/>
<path d="M234.108 317.52C242.304 317.52 248.948 310.876 248.948 302.68C248.948 294.484 242.304 287.84 234.108 287.84C225.912 287.84 219.268 294.484 219.268 302.68C219.268 310.876 225.912 317.52 234.108 317.52Z" fill="#FCED7E"/>
<path d="M143.948 421.68C152.144 421.68 158.788 415.036 158.788 406.84C158.788 398.644 152.144 392 143.948 392C135.752 392 129.108 398.644 129.108 406.84C129.108 415.036 135.752 421.68 143.948 421.68Z" fill="#FCED7E"/>
<path d="M316.708 414.12C324.904 414.12 331.548 407.476 331.548 399.28C331.548 391.085 324.904 384.44 316.708 384.44C308.512 384.44 301.868 391.085 301.868 399.28C301.868 407.476 308.512 414.12 316.708 414.12Z" fill="#FCED7E"/>
<path d="M234.948 402.08C243.144 402.08 249.788 395.436 249.788 387.24C249.788 379.044 243.144 372.4 234.948 372.4C226.752 372.4 220.108 379.044 220.108 387.24C220.108 395.436 226.752 402.08 234.948 402.08Z" fill="#FCED7E"/>
<path d="M305.228 341.88C313.424 341.88 320.068 335.236 320.068 327.04C320.068 318.844 313.424 312.2 305.228 312.2C297.032 312.2 290.388 318.844 290.388 327.04C290.388 335.236 297.032 341.88 305.228 341.88Z" fill="#FCED7E"/>
</g>
<path d="M267.288 303.52C267.288 303.52 269.108 316.12 265.888 323.26C260.708 335.02 224.728 348.46 181.188 332.78C146.608 320.32 129.668 303.1 129.248 300.44" stroke="#329369" stroke-width="5.08" stroke-miterlimit="10" stroke-linecap="round" stroke-linejoin="round"/>
<path d="M155.428 278.74C154.728 279.58 154.028 280.7 153.468 282.1C151.508 286.86 150.948 296.8 150.948 296.8" stroke="#329369" stroke-width="5.08" stroke-miterlimit="10" stroke-linecap="round" stroke-linejoin="round"/>
<path d="M179.089 293.16C178.529 294.28 177.969 295.54 177.689 296.94C176.989 300.58 176.149 312.06 176.149 312.06" stroke="#329369" stroke-width="5.08" stroke-miterlimit="10" stroke-linecap="round" stroke-linejoin="round"/>
<path d="M202.889 302.96C202.609 304.08 202.329 305.48 202.189 307.16C201.909 309.12 202.049 321.02 202.049 321.02" stroke="#329369" stroke-width="5.08" stroke-miterlimit="10" stroke-linecap="round" stroke-linejoin="round"/>
<path d="M228.369 308.56C228.649 311.78 228.789 316.26 228.369 321.72" stroke="#329369" stroke-width="5.08" stroke-miterlimit="10" stroke-linecap="round" stroke-linejoin="round"/>
<path d="M249.789 307.44C250.209 310.1 250.629 313.74 250.769 318.36" stroke="#329369" stroke-width="5.08" stroke-miterlimit="10" stroke-linecap="round" stroke-linejoin="round"/>
<path d="M140.168 265.02C136.808 266.28 132.328 269.64 130.648 279.44" stroke="#329369" stroke-width="5.08" stroke-miterlimit="10" stroke-linecap="round" stroke-linejoin="round"/>
<path d="M283.808 311.78C276.668 307.86 270.788 305.06 267.288 303.52V295.4" stroke="#329369" stroke-width="5.08" stroke-miterlimit="10" stroke-linecap="round" stroke-linejoin="round"/>
<path d="M240.952 170.116C243.993 170.536 246.344 167.316 245.238 164.236C244.685 162.556 243.717 161.016 242.196 160.036C237.496 157.096 219.938 156.816 210.675 163.536C202.518 169.696 227.127 168.156 240.952 170.116Z" fill="#423232"/>
<path d="M279.246 171.656C276.758 171.656 275.237 168.436 276.481 165.776C277.173 164.376 278.14 163.116 279.523 162.416C283.809 160.316 295.283 161.576 300.399 168.716C304.961 175.016 290.721 171.516 279.246 171.656Z" fill="#423232"/>
<path d="M236.113 187.756C227.265 183.276 213.301 186.636 213.301 186.636" stroke="#423232" stroke-width="5.08" stroke-miterlimit="10" stroke-linecap="round" stroke-linejoin="round"/>
<path d="M290.722 190.556C290.722 190.556 287.127 186.636 273.855 189.716" stroke="#423232" stroke-width="5.08" stroke-miterlimit="10" stroke-linecap="round" stroke-linejoin="round"/>
<path d="M270.893 251.962C266.66 253.824 264.628 250.099 258.024 253.316C253.283 255.518 250.743 256.195 244.985 252.808C241.26 250.438 236.688 253.824 232.285 247.39" stroke="#423232" stroke-width="5.08" stroke-miterlimit="10" stroke-linecap="round" stroke-linejoin="round"/>
<path d="M340.017 302.106C332.177 284.746 326.157 287.126 331.617 271.446C337.077 255.906 330.077 244.846 315.657 230.146C301.937 216.146 300.537 200.886 300.957 198.646C299.697 204.526 299.137 210.546 298.857 216.426C298.437 224.266 298.577 231.966 298.017 239.666C296.897 256.886 292.837 273.826 274.357 289.786C266.237 296.786 255.877 301.826 244.397 304.206C241.317 313.586 245.937 320.306 256.017 321.426C266.097 322.546 270.297 337.666 293.117 344.806C327.277 355.866 347.857 319.466 340.017 302.106Z" fill="#423232"/>
<path d="M276.177 132.706C279.117 134.246 281.637 132.846 283.177 129.766C299.417 127.246 303.197 159.726 303.757 161.686C304.317 163.786 304.597 169.666 303.477 185.766C302.777 194.726 354.857 131.166 307.257 104.286C310.757 99.1057 308.237 73.3457 278.977 67.0457C268.477 64.8057 254.757 74.6057 237.537 70.8257C170.197 55.8457 100.337 70.1257 105.797 159.026C107.057 178.486 108.317 199.486 75.2772 213.486C36.9172 229.726 38.8772 272.146 65.8971 280.826C77.0971 284.466 40.1372 309.666 61.6971 332.066C72.8971 343.826 92.9171 320.026 113.217 332.906C143.877 352.366 159.137 343.546 165.157 335.846C177.477 320.166 162.217 288.666 162.217 288.666C162.217 288.666 168.237 279.006 170.197 273.826C179.717 248.346 157.037 236.866 157.037 236.866C122.037 223.426 128.337 184.366 145.417 182.126C163.337 179.886 168.937 195.846 169.917 199.766C169.917 199.766 185.737 221.606 216.257 171.766C246.497 121.926 263.017 125.566 276.177 132.706Z" fill="#423232"/>
<path d="M151.053 227.92V251.72" stroke="#FFDE55" stroke-width="5.08" stroke-miterlimit="10" stroke-linecap="round" stroke-linejoin="round"/>
<path d="M169.953 283.64C166.173 287.42 160.993 289.8 155.113 289.8C143.773 289.8 134.393 280.56 134.393 269.08C134.393 257.74 143.633 248.36 155.113 248.36C160.853 248.36 166.173 250.74 169.953 254.52C167.433 253.12 164.633 252.28 161.553 252.28C152.313 252.28 144.753 259.84 144.753 269.08C144.753 278.32 152.313 285.88 161.553 285.88C164.633 286.02 167.433 285.18 169.953 283.64Z" fill="#FFDE55"/>
<path d="M151.053 277.48C155.615 277.48 159.313 273.782 159.313 269.22C159.313 264.658 155.615 260.96 151.053 260.96C146.491 260.96 142.793 264.658 142.793 269.22C142.793 273.782 146.491 277.48 151.053 277.48Z" fill="#FF6B57"/>
<path d="M310.793 254.8C308.273 253.4 305.473 252.56 302.393 252.56C300.153 252.56 298.193 252.98 296.233 253.82C296.513 252.14 296.933 250.46 297.073 248.78C302.533 248.92 307.293 251.16 310.793 254.8Z" fill="#FFDE55"/>
<path d="M310.933 283.64C307.153 287.42 301.973 289.8 296.093 289.8C290.213 289.8 284.753 287.28 280.973 283.22C283.213 280.7 285.173 278.18 286.993 275.66C289.513 281.68 295.533 285.74 302.393 285.74C305.473 286.02 308.413 285.18 310.933 283.64Z" fill="#FFDE55"/>
<path d="M300.293 269.22C300.293 273.84 296.653 277.48 292.033 277.48C290.213 277.48 288.533 276.92 287.133 275.8C290.353 271.04 292.733 266.14 294.273 261.38C297.633 262.22 300.293 265.44 300.293 269.22Z" fill="#FF6B57"/>
</g>
</svg>
