<svg width="420" height="420" viewBox="0 0 420 420" fill="none" xmlns="http://www.w3.org/2000/svg">
<path d="M210 419.125C93.9217 419.125 0 325.26 0 209.562C0 93.726 94.061 0 210 0C326.078 0 420 93.8651 420 209.562C420.139 325.399 326.078 419.125 210 419.125Z" fill="#F4DA92"/>
<mask id="mask0_220_477" style="mask-type:alpha" maskUnits="userSpaceOnUse" x="0" y="0" width="420" height="420">
<path d="M210 419.125C93.9217 419.125 0 325.26 0 209.562C0 93.726 94.061 0 210 0C326.078 0 420 93.8651 420 209.562C420.139 325.399 326.078 419.125 210 419.125Z" fill="#F7C0B5"/>
</mask>
<g mask="url(#mask0_220_477)">
<path d="M328.159 386.024C327.179 386.722 326.059 387.421 325.079 388.12C323.959 388.818 322.979 389.517 321.859 390.075C320.879 390.634 320.039 391.193 319.059 391.752C318.919 391.892 318.779 391.892 318.639 392.031C315.419 393.987 312.059 395.803 308.699 397.48C307.719 398.039 306.599 398.598 305.619 399.017C305.619 399.017 305.479 399.156 305.339 399.156C304.219 399.715 303.099 400.274 301.979 400.833C299.739 401.951 297.359 402.929 295.119 403.907C293.999 404.465 292.739 404.885 291.619 405.304C290.499 405.723 289.239 406.282 288.119 406.701C286.999 407.12 285.739 407.679 284.619 408.098C284.619 408.098 284.619 408.098 284.479 408.098C283.359 408.517 282.099 408.936 280.979 409.355C278.459 410.193 275.799 411.032 273.279 411.87C272.439 412.149 271.459 412.429 270.619 412.708C267.959 413.546 265.299 414.245 262.639 414.804C261.659 415.083 260.679 415.223 259.559 415.502C257.039 416.061 254.379 416.62 251.859 417.179C251.299 417.319 250.879 417.319 250.319 417.458C249.479 417.598 248.499 417.738 247.659 417.877C246.399 418.017 245.279 418.297 244.019 418.436C243.459 418.576 242.899 418.576 242.339 418.716C241.639 418.855 240.799 418.995 239.959 418.995C237.719 419.274 235.339 419.554 233.099 419.833C232.399 419.973 231.559 419.973 230.859 420.113H230.719C229.739 420.252 228.759 420.252 227.779 420.392C226.799 420.532 225.819 420.532 224.839 420.532C224.279 420.532 223.579 420.672 223.019 420.672C221.899 420.672 220.919 420.811 219.939 420.811C218.539 420.811 217.279 420.951 215.879 420.951C214.479 420.951 213.219 420.951 211.819 420.951C210.839 420.951 209.859 420.951 208.879 420.951C149.939 420.113 96.7394 395.105 58.9394 355.428C58.9394 355.428 58.9394 355.288 58.7994 355.288C63.1394 346.766 79.2394 331.398 96.0394 318.685C117.319 302.618 147.419 292.699 147.419 292.699C147.419 292.699 167.159 289.485 240.379 304.714C296.239 316.449 320.039 364.09 328.159 386.024Z" fill="#BC8C89"/>
<path d="M255.919 343.413C252.979 357.803 233.939 366.325 201.879 353.472C162.539 337.545 147.419 292.699 147.419 292.699C145.319 260.566 140.419 233.043 140.419 233.043C185.919 229.132 239.679 282.221 239.679 282.221L245.839 308.486C246.399 310.721 247.519 312.677 249.199 314.074C252.139 319.104 257.879 334.192 255.919 343.413Z" fill="#BC8C89"/>
<path d="M249.199 314.214C222.459 312.817 202.719 308.905 181.579 271.044C199.499 286.831 220.639 292.839 242.899 295.633L245.839 308.486C246.399 310.861 247.519 312.817 249.199 314.214Z" fill="#AD5226"/>
<path d="M304.499 145.865C307.019 157.601 308.279 167.101 301.419 198.396C294.559 229.69 307.719 260.985 274.679 289.625C252.419 308.905 213.499 312.537 182.419 291.442C171.919 284.316 162.259 274.397 154.419 261.404C148.259 251.206 141.119 241.566 133.139 232.764C122.079 220.749 108.779 196.58 115.359 153.829C125.999 84.2541 195.019 76.2907 235.759 83.9747C276.499 91.6586 297.639 114.85 304.499 145.865Z" fill="#BC8C89"/>
<path d="M170.519 200.491C170.519 200.491 166.179 179.535 145.739 182.05C128.099 184.285 121.939 226.477 161.979 238.213" fill="#BC8C89"/>
<path d="M160.72 219.072C160.72 219.072 155.68 215.859 156.24 210.271C157.08 203.705 156.24 199.653 153.16 198.396C145.46 195.182 143.92 204.124 144.2 205.241" stroke="#423232" stroke-width="5.50549" stroke-miterlimit="10" stroke-linecap="round" stroke-linejoin="round"/>
<path d="M267.539 232.624C267.539 232.624 272.859 232.904 277.899 226.896C280.699 223.543 283.079 219.352 281.539 218.095C279.999 216.697 254.659 220.609 252.979 223.962C251.299 227.315 261.099 232.624 267.539 232.624Z" fill="#AD5226"/>
<path d="M271.739 185.682C271.739 185.682 272.019 198.954 280.559 213.763C284.339 220.33 278.599 231.087 266.139 232.904" stroke="#423232" stroke-width="5.50549" stroke-miterlimit="10" stroke-linecap="round" stroke-linejoin="round"/>
<path opacity="0.42" d="M195.859 239.749C203.823 239.749 210.279 234.433 210.279 227.874C210.279 221.316 203.823 215.999 195.859 215.999C187.896 215.999 181.439 221.316 181.439 227.874C181.439 234.433 187.896 239.749 195.859 239.749Z" fill="#884F25"/>
<path opacity="0.42" d="M299.179 216.279C298.759 224.102 298.899 231.786 298.339 239.47C292.179 238.073 287.699 233.463 287.699 228.014C287.699 222.146 292.599 217.396 299.179 216.279Z" fill="#884F25"/>
<path d="M374.423 472.479H20.5032C20.5032 472.479 22.6032 407.654 43.8832 361.41C59.9832 326.483 97.9231 307.064 126.203 297.005C134.183 294.211 141.463 292.115 147.063 290.578C147.063 291.277 147.203 291.836 147.203 292.534C147.203 292.534 162.323 337.381 201.663 353.307C233.723 366.3 252.763 357.638 255.703 343.248C257.523 334.028 251.783 318.939 248.843 314.049C247.163 312.652 246.043 310.557 245.483 308.461L244.363 303.851C247.023 303.292 249.543 302.593 252.063 301.755C252.903 301.476 253.603 301.196 254.443 300.917C272.503 305.667 299.663 316.983 331.723 343.807C367.983 373.984 374.423 472.479 374.423 472.479Z" fill="#BEE3EB"/>
<path d="M189.483 367.837C141.183 346.182 122.423 307.483 126.063 297.005C126.063 297.005 126.063 296.865 126.203 296.726C128.723 291.556 132.783 287.365 137.823 284.431C140.623 282.755 143.703 281.218 146.223 280.38C146.363 282.336 146.923 288.483 147.063 290.578C147.063 291.277 147.203 291.836 147.203 292.534C147.203 292.534 156.163 325.925 195.503 341.851C227.563 354.844 247.443 346.322 249.543 331.792C251.923 315.726 242.823 304.13 242.823 304.13C245.483 303.571 249.683 302.593 252.203 301.755C258.363 309.16 264.663 316.564 267.043 336.123C270.403 364.205 239.463 390.33 189.483 367.837Z" fill="white"/>
<path d="M89.8032 472.478L83.5032 420.647" stroke="#544D4D" stroke-width="5.50549" stroke-miterlimit="10" stroke-linecap="round" stroke-linejoin="round"/>
<path d="M334.243 403.044C334.243 403.044 330.043 413.242 331.303 423.441C332.563 433.64 336.203 448.589 331.023 472.479" stroke="#544D4D" stroke-width="5.50549" stroke-miterlimit="10" stroke-linecap="round" stroke-linejoin="round"/>
<path d="M220.966 199.71C217.606 199.57 215.086 196.776 215.366 193.423L215.506 189.511C215.646 186.158 218.446 183.643 221.806 183.923C225.166 184.062 227.686 186.856 227.406 190.209L227.266 194.121C227.126 197.335 224.326 199.849 220.966 199.71Z" fill="#423232"/>
<path d="M279.906 201.805C276.826 201.665 274.446 199.011 274.586 195.937L274.726 192.305C274.866 189.231 277.526 186.856 280.606 186.996C283.686 187.136 286.066 189.79 285.926 192.864L285.786 196.496C285.646 199.57 282.986 201.945 279.906 201.805Z" fill="#423232"/>
<path d="M234.546 191.606C234.546 191.606 230.906 186.437 224.606 185.459C219.426 184.621 213.686 187.136 212.846 190.069" stroke="#423232" stroke-width="5.50549" stroke-miterlimit="10" stroke-linecap="round" stroke-linejoin="round"/>
<path d="M275.846 192.864C275.846 192.864 275.846 188.393 282.286 188.393C287.606 188.393 289.846 193.283 289.846 193.283" stroke="#423232" stroke-width="5.50549" stroke-miterlimit="10" stroke-linecap="round" stroke-linejoin="round"/>
<path d="M240.286 169.113C243.226 170.091 246.166 167.437 245.606 164.224C245.326 162.547 244.626 160.871 243.226 159.613C239.026 155.841 221.666 152.488 211.166 157.378C201.926 161.849 226.846 164.643 240.286 169.113Z" fill="#423232"/>
<path d="M282.146 171.349C279.766 172.187 277.246 169.672 277.666 166.738C277.806 165.201 278.366 163.665 279.486 162.547C282.846 159.194 294.326 156.54 301.606 161.709C307.906 166.04 293.066 167.297 282.146 171.349Z" fill="#423232"/>
<path d="M274.978 252.41C270.39 254.429 268.188 250.391 261.031 253.878C255.892 256.264 253.139 256.998 246.9 253.328C242.863 250.758 237.908 254.429 233.136 247.455" stroke="#423232" stroke-width="5.50549" stroke-miterlimit="10" stroke-linecap="round" stroke-linejoin="round"/>
<path d="M247.537 302.951C257.757 300.297 266.857 295.686 274.277 289.26C307.317 260.759 294.157 229.325 301.017 198.03C303.257 187.971 304.517 180.148 305.357 173.861C304.237 173.721 302.977 173.581 301.717 173.302C296.677 172.603 293.317 167.993 293.877 162.963C294.157 160.868 294.297 158.772 294.437 156.537C293.877 156.397 294.017 156.397 293.457 156.397C292.617 159.052 291.637 161.846 290.937 164.5C289.677 168.691 285.617 171.346 281.417 171.067H281.277C276.377 170.647 272.737 166.596 272.737 161.706C272.877 158.213 272.877 154.721 273.017 151.228C272.457 151.088 272.737 151.228 272.177 151.088C271.477 154.721 270.777 158.353 270.077 162.125C269.237 166.736 265.177 169.949 260.557 169.669C248.517 169.111 236.617 168.971 225.837 168.971C221.077 168.971 217.157 165.478 216.737 160.728C216.037 154.581 215.057 148.434 213.377 142.147C211.557 147.735 211.557 153.603 211.837 159.61C212.117 164.78 208.057 169.111 202.877 169.25C190.417 169.53 182.017 169.949 180.617 170.089C181.037 189.229 176.697 210.464 168.997 196.074C168.437 195.096 168.017 194.118 167.457 192.861C164.237 187.133 157.797 180.287 145.617 181.824C128.537 184.059 122.237 223.597 158.077 236.729C158.217 239.663 158.917 242.597 160.177 245.671C165.637 258.943 168.017 269.98 168.017 279.061C168.017 331.731 81.6372 309.797 57.2772 262.017C47.8972 243.435 47.7572 221.082 65.5372 197.611C109.077 144.382 96.0572 164.64 105.717 133.066C121.537 81.3738 157.657 64.8882 205.537 65.3073C205.537 65.3073 285.197 65.3073 306.337 84.5871C327.477 103.867 320.197 164.081 318.377 169.53C317.817 171.206 316.417 172.184 314.877 172.883C314.037 200.405 316.837 210.045 326.637 232.259C348.057 281.157 307.597 327.68 247.537 302.951Z" fill="#423232"/>
<path d="M168.997 196.214C168.437 195.236 168.017 194.258 167.457 193C168.017 194.118 168.577 195.236 168.997 196.214Z" fill="#FEE4BF"/>
<path opacity="0.6" d="M279.488 218.349C279.488 218.349 281.168 227.849 292.228 232.599C295.028 233.717 297.968 231.901 297.968 228.827C297.828 228.827 280.188 219.467 279.488 218.349Z" fill="#B7AEA9"/>
<path opacity="0.6" d="M252.888 195.437C252.888 195.437 261.848 186.496 266.328 185.518L254.428 188.312L252.888 195.437Z" fill="#B7AEA9"/>
<path opacity="0.6" d="M193.108 218.349C193.108 218.349 198.288 230.085 213.828 232.879C229.368 235.813 243.508 224.636 250.088 205.915C250.088 205.915 244.768 223.239 223.488 226.452C202.348 229.945 193.108 218.349 193.108 218.349Z" fill="#B7AEA9"/>
<path opacity="0.29" d="M218.168 155.62C198.428 155.62 182.328 172.106 182.188 192.224C182.188 201.724 185.688 210.386 191.428 216.673L242.248 165.4C235.948 159.253 227.548 155.62 218.168 155.62Z" fill="#DBC3ED"/>
<path opacity="0.23" d="M242.249 165.4L191.429 216.673C197.869 223.798 206.969 228.129 217.049 228.129C236.509 228.129 252.469 212.062 253.029 192.084C253.309 181.606 249.109 172.106 242.249 165.4Z" fill="#C4ADD8"/>
<path opacity="0.29" d="M300.068 155.62C285.088 155.62 272.488 172.106 271.928 192.224C271.648 200.327 273.468 207.731 276.548 213.739L320.928 169.87C316.308 161.208 308.748 155.62 300.068 155.62Z" fill="#DBC3ED"/>
<path opacity="0.23" d="M320.928 169.73L276.548 213.599C281.168 222.4 288.728 228.128 297.548 228.128C312.248 228.128 324.848 212.062 325.688 192.084C325.968 183.841 324.148 176.017 320.928 169.73Z" fill="#C4ADD8"/>
<path d="M253.028 192.224C252.608 212.202 236.508 228.268 217.048 228.268C197.588 228.268 182.048 212.202 182.048 192.224C182.188 172.106 198.288 155.62 218.028 155.62C237.768 155.62 253.588 172.106 253.028 192.224Z" stroke="#FFCB45" stroke-width="5.50549" stroke-miterlimit="10" stroke-linecap="round" stroke-linejoin="round"/>
<path d="M325.688 192.224C324.848 212.202 312.248 228.268 297.548 228.268C282.848 228.268 271.368 212.202 271.928 192.224C272.488 172.106 285.088 155.62 300.068 155.62C315.048 155.62 326.528 172.106 325.688 192.224Z" stroke="#FFCB45" stroke-width="5.50549" stroke-miterlimit="10" stroke-linecap="round" stroke-linejoin="round"/>
<path d="M182.469 188.312H162.589" stroke="#FFCB45" stroke-width="5.50549" stroke-miterlimit="10" stroke-linecap="round" stroke-linejoin="round"/>
<path d="M253.168 188.312C253.168 188.312 269.828 181.885 271.928 188.312" stroke="#FFCB45" stroke-width="5.50549" stroke-miterlimit="10" stroke-linecap="round" stroke-linejoin="round"/>
</g>
</svg>
